<svg width="1015.8" height="148.05" viewBox="0 0 1015.8 148.05" xmlns="http://www.w3.org/2000/svg">
	<g id="svgGroup" stroke-linecap="round" fill-rule="evenodd" font-size="9pt" stroke="#000" stroke-width="0.25mm" fill="none" style="stroke:#000;stroke-width:0.25mm;fill:none">
		<path d="M 54.3 12.6 L 52.65 28.65 L 20.7 28.65 L 19.8 56.25 L 48.45 56.25 L 46.8 72.15 L 19.35 72.15 L 19.2 77.1 L 21 116.1 L 0 116.1 L 1.8 79.65 L 0 12.6 L 54.3 12.6 Z" id="0" vector-effect="non-scaling-stroke"/>
		<path d="M 87.75 71.85 L 97.95 71.85 L 97.95 69.3 Q 97.95 61.95 94.95 59.25 A 7.939 7.939 0 0 0 92.562 57.826 Q 90.162 56.866 86.356 56.628 A 42.694 42.694 0 0 0 83.7 56.55 A 20.854 20.854 0 0 0 80.748 56.776 Q 79.26 56.99 77.592 57.405 A 43.657 43.657 0 0 0 75.525 57.975 A 50.297 50.297 0 0 0 71.175 59.523 Q 68.241 60.713 64.95 62.4 L 60.6 50.55 Q 66.641 46.336 75.115 42.911 A 103.886 103.886 0 0 1 76.275 42.45 A 72.86 72.86 0 0 1 81.726 40.552 Q 87.375 38.85 91.5 38.85 A 35.152 35.152 0 0 1 100.676 39.941 Q 111.176 42.787 114.006 53.059 A 32.386 32.386 0 0 1 115.05 61.65 L 115.05 91.05 A 32.068 32.068 0 0 0 116.055 98.773 Q 116.933 102.311 118.579 106.134 A 64.4 64.4 0 0 0 120.3 109.8 L 104.4 116.55 A 107.077 107.077 0 0 1 101.675 110.948 Q 100.468 108.257 99.585 105.817 A 55.71 55.71 0 0 1 98.85 103.65 Q 90.6 116.1 78 116.1 A 22.717 22.717 0 0 1 71.107 115.099 A 18.473 18.473 0 0 1 63.525 110.475 A 18.747 18.747 0 0 1 58.396 100.637 A 27.121 27.121 0 0 1 57.9 95.325 A 19.352 19.352 0 0 1 63.184 82.028 A 28.854 28.854 0 0 1 66.6 78.825 A 31.613 31.613 0 0 1 83.489 72.066 A 41.187 41.187 0 0 1 87.75 71.85 Z M 97.95 94.65 L 97.95 84.6 A 99.759 99.759 0 0 0 93.274 83.651 Q 88.453 82.8 85.05 82.8 A 15.48 15.48 0 0 0 81.484 83.174 Q 75.6 84.572 75.6 91.2 Q 75.6 95.55 78 98.175 Q 80.4 100.8 84.3 100.8 A 14.454 14.454 0 0 0 89.136 99.899 Q 92.973 98.537 97.362 95.115 A 49.724 49.724 0 0 0 97.95 94.65 Z" id="1" vector-effect="non-scaling-stroke"/>
		<path d="M 172.05 92.4 L 173.7 90 L 181.2 97.8 A 18.166 18.166 0 0 0 180.897 98.327 Q 180.589 98.881 180.203 99.645 A 63.842 63.842 0 0 0 180.075 99.9 A 10.08 10.08 0 0 1 179.651 100.648 Q 178.785 102.059 176.775 104.7 A 45.655 45.655 0 0 1 173.024 109.054 A 39.505 39.505 0 0 1 171.225 110.775 Q 168.3 113.4 163.65 115.575 Q 159 117.75 153.9 117.75 Q 142.65 117.75 135.6 108.6 Q 128.55 99.45 128.55 84.75 Q 128.55 66.45 139.2 52.65 A 42.658 42.658 0 0 1 146.53 45.116 A 27.77 27.77 0 0 1 164.1 38.85 Q 168.45 38.85 172.8 40.125 Q 177.15 41.4 181.65 44.1 L 171.15 62.55 Q 165.75 58.35 159.15 58.35 A 14.705 14.705 0 0 0 154.708 58.987 A 11.417 11.417 0 0 0 148.95 63.075 Q 145.491 67.615 145.355 76.796 A 51.237 51.237 0 0 0 145.35 77.55 A 42.274 42.274 0 0 0 145.784 83.801 Q 146.613 89.337 149.025 93.225 A 12.832 12.832 0 0 0 152.568 97.061 Q 155.143 98.856 158.596 99.109 A 15.825 15.825 0 0 0 159.75 99.15 A 12.054 12.054 0 0 0 164.957 97.937 A 15.591 15.591 0 0 0 166.8 96.9 A 31.113 31.113 0 0 0 169.133 95.23 Q 170.221 94.368 171.066 93.505 A 14.725 14.725 0 0 0 172.05 92.4 Z" id="2" vector-effect="non-scaling-stroke"/>
		<path d="M 234.75 94.05 L 237.45 91.8 L 244.35 100.2 Q 242.85 102.75 239.7 106.05 Q 236.55 109.35 233.325 111.675 Q 230.1 114 224.775 115.875 Q 219.45 117.75 213.75 117.75 A 31.881 31.881 0 0 1 213.56 117.749 Q 207.597 117.714 202.724 115.443 A 25.198 25.198 0 0 1 193.95 108.525 A 32.442 32.442 0 0 1 187.204 94.124 A 46.265 46.265 0 0 1 186.3 84.75 Q 186.3 66.45 196.95 52.65 A 42.658 42.658 0 0 1 204.28 45.116 A 27.77 27.77 0 0 1 221.85 38.85 A 31.282 31.282 0 0 1 228.793 39.575 Q 234.885 40.961 238.875 45 A 20.143 20.143 0 0 1 243.986 54.191 Q 244.829 57.373 244.935 61.157 A 39.238 39.238 0 0 1 244.95 62.25 A 46.422 46.422 0 0 1 244.519 68.37 Q 243.966 72.525 242.7 77.25 L 239.7 80.4 L 202.2 83.85 Q 204.66 100.199 217.167 100.779 A 20.155 20.155 0 0 0 218.1 100.8 A 18.959 18.959 0 0 0 223.136 100.088 A 25.87 25.87 0 0 0 227.25 98.55 Q 230.623 96.969 232.959 95.388 A 22.486 22.486 0 0 0 234.75 94.05 Z M 201.75 73.2 L 227.25 70.05 Q 227.552 67.732 227.652 65.956 A 28.935 28.935 0 0 0 227.7 64.35 Q 227.7 55.729 220.636 54.503 A 14.851 14.851 0 0 0 218.1 54.3 A 13.788 13.788 0 0 0 207.789 58.749 A 18.364 18.364 0 0 0 207 59.625 A 21.761 21.761 0 0 0 202.661 68.044 A 29.633 29.633 0 0 0 201.75 73.2 Z" id="3" vector-effect="non-scaling-stroke"/>
		<path d="M 258.3 113.7 L 259.8 79.65 L 258 3.75 L 278.55 0 L 276.6 38.7 L 276.6 54.9 Q 278.25 52.5 280.65 49.8 A 22.503 22.503 0 0 1 282.516 47.955 Q 284.577 46.123 287.7 44.025 A 78.39 78.39 0 0 1 288.15 43.725 Q 291.995 41.181 295.499 40.554 A 12.78 12.78 0 0 1 297.75 40.35 A 18.859 18.859 0 0 1 312.254 46.775 A 25.868 25.868 0 0 1 314.1 49.05 Q 320.4 57.75 320.4 71.4 A 61.538 61.538 0 0 1 318.832 85.664 A 43.78 43.78 0 0 1 310.125 103.575 A 33.629 33.629 0 0 1 297.493 113.348 A 34.724 34.724 0 0 1 283.5 116.1 Q 276.061 116.1 258.589 113.739 A 631.19 631.19 0 0 1 258.3 113.7 Z M 276.6 64.05 L 276.6 77.1 L 277.5 99.15 A 108.377 108.377 0 0 0 285.082 99.795 A 88.623 88.623 0 0 0 289.35 99.9 Q 301.583 99.9 303.424 85.45 A 44.247 44.247 0 0 0 303.75 79.875 A 50.589 50.589 0 0 0 303.333 73.07 Q 301.528 59.85 291.9 59.85 A 26.946 26.946 0 0 0 285.339 60.712 Q 282.489 61.428 279.427 62.737 A 52.353 52.353 0 0 0 276.6 64.05 Z" id="4" vector-effect="non-scaling-stroke"/>
		<path d="M 330.475 68.551 A 59.205 59.205 0 0 0 328.35 84.75 A 44.467 44.467 0 0 0 328.77 90.957 A 32.848 32.848 0 0 0 336.525 108.375 A 27.458 27.458 0 0 0 344.851 114.966 A 26.903 26.903 0 0 0 357.15 117.75 A 29.122 29.122 0 0 0 374.066 112.623 A 36.082 36.082 0 0 0 382.275 104.625 Q 392.25 91.5 392.25 71.7 A 56.278 56.278 0 0 0 392.245 70.978 Q 392.176 65.592 391.071 60.991 A 30.903 30.903 0 0 0 384.525 47.85 Q 376.8 38.85 362.925 38.85 A 27.101 27.101 0 0 0 345.872 44.876 A 41.248 41.248 0 0 0 338.7 52.2 A 47.608 47.608 0 0 0 330.475 68.551 Z M 361.47 57.769 A 19.403 19.403 0 0 0 360.6 57.75 A 16.382 16.382 0 0 0 353.504 59.179 Q 345.15 63.149 345.15 78.15 A 42.061 42.061 0 0 0 345.618 84.638 Q 346.15 88.039 347.286 90.793 A 19.385 19.385 0 0 0 349.5 94.8 Q 353.83 100.772 360.909 100.8 A 16.877 16.877 0 0 0 360.975 100.8 A 14.678 14.678 0 0 0 365.651 100.093 A 11.725 11.725 0 0 0 371.775 95.325 Q 374.399 91.416 375.149 85.023 A 47.484 47.484 0 0 0 375.45 79.5 Q 375.45 58.397 361.47 57.769 Z" id="5" vector-effect="non-scaling-stroke"/>
		<path d="M 402.775 68.551 A 59.205 59.205 0 0 0 400.65 84.75 A 44.467 44.467 0 0 0 401.07 90.957 A 32.848 32.848 0 0 0 408.825 108.375 A 27.458 27.458 0 0 0 417.151 114.966 A 26.903 26.903 0 0 0 429.45 117.75 A 29.122 29.122 0 0 0 446.366 112.623 A 36.082 36.082 0 0 0 454.575 104.625 Q 464.55 91.5 464.55 71.7 A 56.278 56.278 0 0 0 464.545 70.978 Q 464.476 65.592 463.371 60.991 A 30.903 30.903 0 0 0 456.825 47.85 Q 449.1 38.85 435.225 38.85 A 27.101 27.101 0 0 0 418.172 44.876 A 41.248 41.248 0 0 0 411 52.2 A 47.608 47.608 0 0 0 402.775 68.551 Z M 433.77 57.769 A 19.403 19.403 0 0 0 432.9 57.75 A 16.382 16.382 0 0 0 425.804 59.179 Q 417.45 63.149 417.45 78.15 A 42.061 42.061 0 0 0 417.918 84.638 Q 418.45 88.039 419.586 90.793 A 19.385 19.385 0 0 0 421.8 94.8 Q 426.13 100.772 433.209 100.8 A 16.877 16.877 0 0 0 433.275 100.8 A 14.678 14.678 0 0 0 437.951 100.093 A 11.725 11.725 0 0 0 444.075 95.325 Q 446.699 91.416 447.449 85.023 A 47.484 47.484 0 0 0 447.75 79.5 Q 447.75 58.397 433.77 57.769 Z" id="6" vector-effect="non-scaling-stroke"/>
		<path d="M 541.35 106.2 L 524.25 117.6 L 496.05 76.05 L 496.05 77.1 L 497.7 112.35 L 477.45 116.1 L 479.25 79.65 L 477.45 3.75 L 498 0 L 496.05 72.45 L 526.05 39.6 L 540.15 49.2 L 513.9 73.8 L 541.35 106.2 Z" id="7" vector-effect="non-scaling-stroke"/>
		<path d="M 566.1 102.45 L 577.8 86.25 Q 590.55 99 603.3 99 A 23.01 23.01 0 0 0 607.683 98.607 Q 610.241 98.111 612.263 96.986 A 12.776 12.776 0 0 0 613.875 95.925 A 10.537 10.537 0 0 0 616.557 92.95 A 9.616 9.616 0 0 0 617.85 87.975 A 9.071 9.071 0 0 0 615.15 81.506 A 14.297 14.297 0 0 0 613.05 79.725 A 43.764 43.764 0 0 0 607.744 76.556 Q 605.019 75.168 601.85 73.96 A 70.922 70.922 0 0 0 601.425 73.8 Q 594.6 71.25 587.85 68.025 Q 581.1 64.8 576.3 58.8 Q 571.5 52.8 571.5 44.25 A 29.199 29.199 0 0 1 580.113 23.439 A 40.759 40.759 0 0 1 582.75 20.925 Q 594 11.1 609.45 11.1 Q 616.5 11.1 623.1 12.6 Q 629.7 14.1 635.85 16.95 L 625.65 38.85 Q 622.45 36.336 617.464 34.126 A 67.444 67.444 0 0 0 614.175 32.775 A 51.291 51.291 0 0 0 609.075 31.111 Q 606.525 30.434 604.242 30.17 A 24.488 24.488 0 0 0 601.425 30 Q 595.95 30 592.575 32.625 Q 589.2 35.25 589.2 39.6 A 7.863 7.863 0 0 0 590.937 44.481 Q 592.088 45.98 594 47.325 A 43.764 43.764 0 0 0 599.306 50.494 Q 602.031 51.882 605.2 53.09 A 70.922 70.922 0 0 0 605.625 53.25 Q 612.45 55.8 619.275 58.875 Q 626.1 61.95 630.9 67.95 Q 635.7 73.95 635.7 82.5 A 32.144 32.144 0 0 1 626.776 104.82 A 43.717 43.717 0 0 1 624.45 107.175 Q 613.2 117.75 598.2 117.75 A 39.88 39.88 0 0 1 586.351 116.041 A 34.811 34.811 0 0 1 578.25 112.35 Q 571.62 108.32 568.37 105.079 A 19.818 19.818 0 0 1 567.45 104.1 L 566.1 102.45 Z" id="9" vector-effect="non-scaling-stroke"/>
		<path d="M 687 92.4 L 688.65 90 L 696.15 97.8 A 18.166 18.166 0 0 0 695.847 98.327 Q 695.539 98.881 695.153 99.645 A 63.842 63.842 0 0 0 695.025 99.9 A 10.08 10.08 0 0 1 694.601 100.648 Q 693.735 102.059 691.725 104.7 A 45.655 45.655 0 0 1 687.974 109.054 A 39.505 39.505 0 0 1 686.175 110.775 Q 683.25 113.4 678.6 115.575 Q 673.95 117.75 668.85 117.75 Q 657.6 117.75 650.55 108.6 Q 643.5 99.45 643.5 84.75 Q 643.5 66.45 654.15 52.65 A 42.658 42.658 0 0 1 661.48 45.116 A 27.77 27.77 0 0 1 679.05 38.85 Q 683.4 38.85 687.75 40.125 Q 692.1 41.4 696.6 44.1 L 686.1 62.55 Q 680.7 58.35 674.1 58.35 A 14.705 14.705 0 0 0 669.658 58.987 A 11.417 11.417 0 0 0 663.9 63.075 Q 660.441 67.615 660.305 76.796 A 51.237 51.237 0 0 0 660.3 77.55 A 42.274 42.274 0 0 0 660.734 83.801 Q 661.563 89.337 663.975 93.225 A 12.832 12.832 0 0 0 667.518 97.061 Q 670.093 98.856 673.546 99.109 A 15.825 15.825 0 0 0 674.7 99.15 A 12.054 12.054 0 0 0 679.907 97.937 A 15.591 15.591 0 0 0 681.75 96.9 A 31.113 31.113 0 0 0 684.083 95.23 Q 685.171 94.368 686.016 93.505 A 14.725 14.725 0 0 0 687 92.4 Z" id="10" vector-effect="non-scaling-stroke"/>
		<path d="M 704.4 43.65 L 722.55 39.75 A 322.382 322.382 0 0 1 723.886 53.719 A 270.907 270.907 0 0 1 724.35 61.65 A 97.742 97.742 0 0 1 730.243 53.409 Q 740.625 40.5 750 40.5 L 748.35 63.9 Q 739.898 63.9 734.915 65.386 A 21.845 21.845 0 0 0 734.625 65.475 A 22.972 22.972 0 0 0 729.87 67.624 Q 727.824 68.827 725.742 70.518 A 42.915 42.915 0 0 0 724.35 71.7 L 724.35 77.1 L 726 112.35 L 705.9 116.1 L 707.7 79.65 Q 707.119 60.198 704.572 44.679 A 189.71 189.71 0 0 0 704.4 43.65 Z" id="11" vector-effect="non-scaling-stroke"/>
		<path d="M 784.2 71.85 L 794.4 71.85 L 794.4 69.3 Q 794.4 61.95 791.4 59.25 A 7.939 7.939 0 0 0 789.012 57.826 Q 786.612 56.866 782.806 56.628 A 42.694 42.694 0 0 0 780.15 56.55 A 20.854 20.854 0 0 0 777.198 56.776 Q 775.71 56.99 774.042 57.405 A 43.657 43.657 0 0 0 771.975 57.975 A 50.297 50.297 0 0 0 767.625 59.523 Q 764.691 60.713 761.4 62.4 L 757.05 50.55 Q 763.091 46.336 771.565 42.911 A 103.886 103.886 0 0 1 772.725 42.45 A 72.86 72.86 0 0 1 778.176 40.552 Q 783.825 38.85 787.95 38.85 A 35.152 35.152 0 0 1 797.126 39.941 Q 807.626 42.787 810.456 53.059 A 32.386 32.386 0 0 1 811.5 61.65 L 811.5 91.05 A 32.068 32.068 0 0 0 812.505 98.773 Q 813.383 102.311 815.029 106.134 A 64.4 64.4 0 0 0 816.75 109.8 L 800.85 116.55 A 107.077 107.077 0 0 1 798.125 110.948 Q 796.918 108.257 796.035 105.817 A 55.71 55.71 0 0 1 795.3 103.65 Q 787.05 116.1 774.45 116.1 A 22.717 22.717 0 0 1 767.557 115.099 A 18.473 18.473 0 0 1 759.975 110.475 A 18.747 18.747 0 0 1 754.846 100.637 A 27.121 27.121 0 0 1 754.35 95.325 A 19.352 19.352 0 0 1 759.634 82.028 A 28.854 28.854 0 0 1 763.05 78.825 A 31.613 31.613 0 0 1 779.939 72.066 A 41.187 41.187 0 0 1 784.2 71.85 Z M 794.4 94.65 L 794.4 84.6 A 99.759 99.759 0 0 0 789.724 83.651 Q 784.903 82.8 781.5 82.8 A 15.48 15.48 0 0 0 777.934 83.174 Q 772.05 84.572 772.05 91.2 Q 772.05 95.55 774.45 98.175 Q 776.85 100.8 780.75 100.8 A 14.454 14.454 0 0 0 785.586 99.899 Q 789.423 98.537 793.812 95.115 A 49.724 49.724 0 0 0 794.4 94.65 Z" id="12" vector-effect="non-scaling-stroke"/>
		<path d="M 849.6 115.65 L 850.35 144.3 L 829.8 148.05 L 831.75 79.65 L 831.9 79.65 Q 831.319 60.198 828.772 44.679 A 189.71 189.71 0 0 0 828.6 43.65 L 846.75 39.75 Q 847.65 47.7 848.25 55.5 A 2.643 2.643 0 0 1 848.45 55.126 Q 849.024 54.192 851 51.771 A 144.789 144.789 0 0 1 851.325 51.375 A 28.144 28.144 0 0 1 853.717 48.836 Q 855.048 47.576 856.711 46.258 A 65.269 65.269 0 0 1 859.5 44.175 A 24.927 24.927 0 0 1 863.303 41.929 Q 866.669 40.35 869.85 40.35 A 19.147 19.147 0 0 1 884.296 46.781 A 27.514 27.514 0 0 1 885.975 48.75 A 29.11 29.11 0 0 1 890.969 58.968 Q 892.5 64.498 892.5 71.4 Q 892.5 91.35 882.225 103.725 A 35.516 35.516 0 0 1 872.467 112.075 A 31.476 31.476 0 0 1 856.65 116.1 Q 853.55 116.1 849.723 115.664 A 84.953 84.953 0 0 1 849.6 115.65 Z M 848.55 64.2 L 848.55 77.1 L 849.15 98.55 Q 855.767 99.653 859.781 99.855 A 33.371 33.371 0 0 0 861.45 99.9 Q 873.683 99.9 875.524 85.45 A 44.247 44.247 0 0 0 875.85 79.875 A 50.589 50.589 0 0 0 875.433 73.07 Q 873.628 59.85 864 59.85 A 29.767 29.767 0 0 0 850.668 63.063 A 36.139 36.139 0 0 0 848.55 64.2 Z" id="13" vector-effect="non-scaling-stroke"/>
		<path d="M 948.6 94.05 L 951.3 91.8 L 958.2 100.2 Q 956.7 102.75 953.55 106.05 Q 950.4 109.35 947.175 111.675 Q 943.95 114 938.625 115.875 Q 933.3 117.75 927.6 117.75 A 31.881 31.881 0 0 1 927.41 117.749 Q 921.447 117.714 916.574 115.443 A 25.198 25.198 0 0 1 907.8 108.525 A 32.442 32.442 0 0 1 901.054 94.124 A 46.265 46.265 0 0 1 900.15 84.75 Q 900.15 66.45 910.8 52.65 A 42.658 42.658 0 0 1 918.13 45.116 A 27.77 27.77 0 0 1 935.7 38.85 A 31.282 31.282 0 0 1 942.643 39.575 Q 948.735 40.961 952.725 45 A 20.143 20.143 0 0 1 957.836 54.191 Q 958.679 57.373 958.785 61.157 A 39.238 39.238 0 0 1 958.8 62.25 A 46.422 46.422 0 0 1 958.369 68.37 Q 957.816 72.525 956.55 77.25 L 953.55 80.4 L 916.05 83.85 Q 918.51 100.199 931.017 100.779 A 20.155 20.155 0 0 0 931.95 100.8 A 18.959 18.959 0 0 0 936.986 100.088 A 25.87 25.87 0 0 0 941.1 98.55 Q 944.473 96.969 946.809 95.388 A 22.486 22.486 0 0 0 948.6 94.05 Z M 915.6 73.2 L 941.1 70.05 Q 941.402 67.732 941.502 65.956 A 28.935 28.935 0 0 0 941.55 64.35 Q 941.55 55.729 934.486 54.503 A 14.851 14.851 0 0 0 931.95 54.3 A 13.788 13.788 0 0 0 921.639 58.749 A 18.364 18.364 0 0 0 920.85 59.625 A 21.761 21.761 0 0 0 916.511 68.044 A 29.633 29.633 0 0 0 915.6 73.2 Z" id="14" vector-effect="non-scaling-stroke"/>
		<path d="M 970.2 43.65 L 988.35 39.75 A 322.382 322.382 0 0 1 989.686 53.719 A 270.907 270.907 0 0 1 990.15 61.65 A 97.742 97.742 0 0 1 996.043 53.409 Q 1006.425 40.5 1015.8 40.5 L 1014.15 63.9 Q 1005.698 63.9 1000.715 65.386 A 21.845 21.845 0 0 0 1000.425 65.475 A 22.972 22.972 0 0 0 995.67 67.624 Q 993.624 68.827 991.542 70.518 A 42.915 42.915 0 0 0 990.15 71.7 L 990.15 77.1 L 991.8 112.35 L 971.7 116.1 L 973.5 79.65 Q 972.919 60.198 970.372 44.679 A 189.71 189.71 0 0 0 970.2 43.65 Z" id="15" vector-effect="non-scaling-stroke"/>
	</g>
</svg>